# xmcd CD database file
#
# Track frame offsets:
#	150
#	28350
#	56722
#	81051
#	107004
#	132027
#	160657
#	195329
#	227908
#	255646
#
# Disc length: 3904 seconds
#
# Revision: 0
# Processed by: cddbd v1.5.1PL2 Copyright (c) Steve Scherf et al.
# Submitted via: CDex 1.51
#
DISCID=7c0f3e0a
DTITLE=Larry Steen World Jazz Ensemble - View From Afar
DYEAR=1900
DGENRE=Jazz
TTITLE0=Whelan's Jig
TTITLE1=Karshlama Blues
TTITLE2=Drum 'n Barong
TTITLE3=Shoshanat Ha' Erev (Rose of the Evening)
TTITLE4=Dervishland
TTITLE5=Horiatiki Salata
TTITLE6=Second Wind
TTITLE7=Misirlou
TTITLE8=Veiw From Afar
TTITLE9=Away in the Sycamores (Part 1 - For Dad, Part 2 - For Mom)
EXTD=
EXTT0=
EXTT1=
EXTT2=
EXTT3=
EXTT4=
EXTT5=
EXTT6=
EXTT7=
EXTT8=
EXTT9=
PLAYORDER=
